<svg width="37" height="45" viewBox="0 0 37 45" fill="none" xmlns="http://www.w3.org/2000/svg">
<path d="M36.6875 31.5625C36.6875 33.4167 36.3333 35.1562 35.625 36.7812C34.9167 38.4062 33.9479 39.8333 32.7188 41.0625C31.5104 42.2708 30.0938 43.2292 28.4688 43.9375C26.8438 44.6458 25.1042 45 23.25 45H0.84375V0.1875H23.25C25.1042 0.1875 26.8438 0.541667 28.4688 1.25C30.0938 1.95833 31.5104 2.92708 32.7188 4.15625C33.9479 5.36458 34.9167 6.78125 35.625 8.40625C36.3333 10.0312 36.6875 11.7708 36.6875 13.625C36.6875 14.4583 36.5729 15.3125 36.3438 16.1875C36.1146 17.0625 35.7917 17.9062 35.375 18.7188C34.9583 19.5312 34.4583 20.2708 33.875 20.9375C33.2917 21.6042 32.6458 22.1562 31.9375 22.5938C32.6667 22.9896 33.3229 23.5312 33.9062 24.2188C34.4896 24.8854 34.9896 25.625 35.4062 26.4375C35.8229 27.25 36.1354 28.1042 36.3438 29C36.5729 29.875 36.6875 30.7292 36.6875 31.5625ZM9.8125 36.0312H23.25C23.875 36.0312 24.4583 35.9167 25 35.6875C25.5417 35.4583 26.0104 35.1458 26.4062 34.75C26.8229 34.3333 27.1458 33.8542 27.375 33.3125C27.6042 32.7708 27.7188 32.1875 27.7188 31.5625C27.7188 30.9375 27.6042 30.3542 27.375 29.8125C27.1458 29.2708 26.8229 28.8021 26.4062 28.4062C26.0104 27.9896 25.5417 27.6667 25 27.4375C24.4583 27.2083 23.875 27.0938 23.25 27.0938H9.8125V36.0312ZM9.8125 18.125H23.25C23.875 18.125 24.4583 18.0104 25 17.7812C25.5417 17.5521 26.0104 17.2396 26.4062 16.8438C26.8229 16.4271 27.1458 15.9479 27.375 15.4062C27.6042 14.8438 27.7188 14.25 27.7188 13.625C27.7188 13 27.6042 12.4167 27.375 11.875C27.1458 11.3333 26.8229 10.8646 26.4062 10.4688C26.0104 10.0521 25.5417 9.72917 25 9.5C24.4583 9.27083 23.875 9.15625 23.25 9.15625H9.8125V18.125Z" fill="black"/>
</svg>
